<?xml version="1.0" standalone="no"?>
<!DOCTYPE svg PUBLIC "-//W3C//DTD SVG 20010904//EN"
 "http://www.w3.org/TR/2001/REC-SVG-20010904/DTD/svg10.dtd">
<svg version="1.0" xmlns="http://www.w3.org/2000/svg"
 width="700.000000pt" height="700.000000pt" viewBox="0 0 700.000000 700.000000"
 preserveAspectRatio="xMidYMid meet">
<metadata>
Created by potrace 1.11, written by Peter Selinger 2001-2013
</metadata>
<g transform="translate(0.000000,700.000000) scale(0.100000,-0.100000)"
fill="#000000" stroke="none">
<path d="M6208 6995 c-2 -2 -50 -5 -108 -9 -58 -3 -121 -8 -140 -10 -19 -3
-62 -7 -95 -11 -32 -4 -62 -8 -65 -10 -3 -2 -30 -6 -60 -10 -30 -3 -62 -8 -70
-10 -8 -2 -28 -7 -45 -9 -243 -41 -680 -175 -925 -282 -19 -8 -44 -19 -55 -24
-147 -62 -431 -212 -610 -322 -115 -71 -422 -281 -435 -298 -3 -3 -34 -28 -70
-55 -235 -182 -581 -506 -805 -757 -349 -391 -661 -818 -939 -1285 l-66 -111
-163 -52 c-89 -28 -254 -81 -367 -117 -337 -106 -299 -87 -343 -173 -21 -41
-77 -149 -124 -240 -87 -167 -153 -295 -303 -585 -45 -88 -108 -209 -140 -270
-31 -60 -108 -208 -169 -327 l-112 -218 38 -1 c21 -1 49 -2 63 -4 14 -1 65 -6
115 -9 50 -4 106 -9 125 -11 19 -2 76 -7 125 -11 50 -3 106 -8 125 -9 19 -2
71 -6 115 -10 44 -3 100 -8 125 -10 25 -2 81 -7 125 -10 44 -3 105 -8 136 -11
82 -8 134 -12 229 -19 47 -3 101 -8 120 -10 19 -2 78 -7 130 -10 52 -4 96 -8
98 -10 5 -5 11 -45 16 -122 8 -108 16 -200 21 -253 2 -25 7 -83 10 -130 4 -47
8 -96 10 -110 2 -14 7 -72 10 -130 3 -58 8 -116 10 -130 2 -14 7 -65 10 -115
4 -49 8 -106 10 -125 2 -19 6 -75 10 -125 3 -49 8 -101 10 -115 2 -14 7 -70
11 -125 4 -55 8 -113 9 -130 2 -16 4 -38 4 -48 1 -14 26 -5 139 54 179 93 361
188 547 284 83 43 195 101 250 130 55 29 195 101 310 161 116 59 268 138 339
175 l129 67 79 243 c88 273 95 322 58 406 -57 129 -185 190 -311 149 -110 -36
-153 -94 -213 -291 -21 -66 -39 -125 -41 -131 -2 -6 -79 -51 -172 -99 -92 -48
-224 -117 -293 -153 -69 -35 -176 -91 -239 -124 -62 -33 -114 -58 -116 -56 -2
2 -6 41 -10 88 -3 47 -8 103 -10 125 -3 22 -7 72 -10 110 -3 39 -7 86 -10 105
-2 19 -7 75 -10 123 -3 49 -7 103 -10 120 -2 18 -7 68 -10 112 -3 44 -8 96 -9
115 -2 19 -7 76 -11 125 -3 50 -8 106 -11 126 -2 21 -6 67 -9 105 -3 37 -7 69
-9 71 -6 6 -72 12 -296 29 -36 2 -87 6 -115 9 -27 2 -84 7 -125 10 -109 8
-209 16 -260 20 -25 2 -81 7 -125 10 -44 4 -100 8 -125 10 -25 2 -85 7 -135
11 -117 8 -135 10 -140 16 -3 3 15 43 38 89 24 46 99 192 167 324 209 410 211
413 234 418 11 2 167 51 346 107 179 56 354 110 389 121 35 10 65 20 66 21 2
2 17 30 34 63 99 192 452 747 552 869 5 6 41 54 81 106 127 169 268 340 418
504 83 91 327 333 405 401 37 33 73 65 79 70 38 36 218 181 311 250 420 310
843 532 1290 675 106 34 275 80 345 94 14 2 68 14 120 25 171 36 400 60 616
66 127 3 144 1 148 -13 6 -20 -1 -351 -8 -401 -3 -20 -8 -65 -11 -101 -8 -81
-32 -248 -45 -303 -5 -23 -12 -58 -15 -77 -9 -50 -42 -181 -72 -280 -117 -395
-303 -771 -548 -1115 -20 -27 -44 -61 -53 -75 -9 -14 -19 -27 -22 -30 -3 -3
-28 -34 -55 -70 -168 -221 -522 -575 -780 -780 -49 -39 -99 -79 -110 -88 -31
-27 -250 -182 -350 -249 -174 -116 -436 -271 -530 -314 -415 -188 -884 71
-888 491 -1 92 16 165 56 250 28 59 95 129 762 798 401 404 749 745 772 758
51 30 132 41 191 24 55 -14 129 -81 154 -138 26 -59 26 -136 -1 -196 -16 -38
-116 -143 -483 -511 -504 -506 -509 -512 -509 -619 0 -103 59 -194 155 -237
83 -36 183 -27 250 25 64 48 965 953 995 999 145 216 177 465 92 709 -61 175
-218 345 -397 429 -112 53 -197 72 -329 72 -173 0 -324 -50 -460 -152 -79 -60
-1520 -1509 -1573 -1582 -144 -198 -213 -432 -199 -677 7 -118 7 -121 36 -226
20 -73 69 -191 107 -254 97 -166 284 -336 477 -434 61 -30 208 -82 263 -92
146 -27 305 -31 439 -10 167 26 385 126 723 333 560 343 1057 762 1436 1211
152 180 348 450 437 603 19 32 49 84 68 115 51 86 173 333 226 457 72 169 185
516 211 650 2 11 15 74 28 140 14 66 28 140 32 165 3 25 8 53 10 64 2 10 6 51
10 90 3 39 8 74 10 77 8 14 18 282 18 469 0 237 -16 534 -29 549 -7 6 -138 32
-245 47 -86 13 -502 28 -512 19z"/>
<path d="M5243 1480 c-202 -53 -381 -197 -460 -370 -46 -100 -65 -186 -68
-299 -7 -325 201 -603 517 -688 67 -18 250 -23 323 -9 61 12 179 61 243 102
283 181 389 593 232 905 -92 182 -252 305 -475 366 -11 2 -69 6 -130 8 -84 3
-127 -1 -182 -15z m342 -128 c209 -79 318 -190 381 -387 14 -46 19 -88 18
-180 0 -108 -3 -127 -28 -189 -86 -209 -232 -330 -448 -371 -214 -41 -455 60
-577 241 -72 106 -103 209 -103 342 1 192 97 370 256 473 62 41 145 76 211 89
68 14 234 3 290 -18z"/>
<path d="M5100 1076 c0 -47 -1 -196 -1 -331 0 -135 1 -265 1 -290 l0 -45 60 0
60 0 0 161 0 161 68 -4 c72 -5 107 -18 135 -52 33 -39 105 -154 133 -210 l27
-56 74 0 c40 0 73 2 73 5 0 9 -94 161 -131 211 -21 28 -56 67 -80 87 l-42 36
48 12 c58 15 139 91 149 140 21 104 -16 188 -104 235 -31 16 -63 19 -252 22
l-218 4 0 -86z m371 -26 c103 -28 107 -169 5 -200 -23 -7 -89 -14 -148 -15
l-108 -2 0 113 c0 65 4 114 10 116 21 7 204 -2 241 -12z"/>
</g>
</svg>
