<?xml version="1.0" encoding="UTF-8"?>
<!DOCTYPE svg PUBLIC "-//W3C//DTD SVG 1.1//EN" "http://www.w3.org/Graphics/SVG/1.1/DTD/svg11.dtd">
<svg xmlns="http://www.w3.org/2000/svg" xml:space="preserve" width="240.09mm" height="42.4772mm" version="1.1" style="shape-rendering:geometricPrecision; text-rendering:geometricPrecision; image-rendering:optimizeQuality; fill-rule:evenodd; clip-rule:evenodd"
viewBox="0 0 27549 4874"
 xmlns:xlink="http://www.w3.org/1999/xlink">
 <defs>
  <style type="text/css">
   <![CDATA[
    .fil0 {fill:#0087F7;fill-rule:nonzero}
    .fil1 {fill:#3F5A70;fill-rule:nonzero}
   ]]>
  </style>
 </defs>
 <g id="Ebene_x0020_1">
  <metadata id="CorelCorpID_0Corel-Layer"/>
  <g id="_189684584">
   <path class="fil0" d="M5848 3461l-728 -2076 481 0c214,680 374,1189 482,1527 63,-189 153,-457 270,-803 117,-346 198,-588 244,-724l409 0c55,170 138,425 247,766 109,340 191,596 245,765 106,-341 267,-851 483,-1531l427 0 -751 2076 -390 0c-285,-852 -450,-1350 -496,-1494 -59,166 -148,415 -266,746 -118,333 -206,581 -264,748l-393 0z"/>
   <path class="fil0" d="M9451 3140c199,0 350,-68 450,-202 101,-132 151,-306 151,-517 0,-215 -51,-389 -154,-523 -103,-132 -252,-200 -449,-200 -197,0 -348,68 -452,200 -103,134 -155,308 -155,523 0,211 51,385 154,517 102,134 254,202 455,202zm2 367c-174,0 -331,-28 -471,-84 -139,-57 -253,-134 -342,-234 -88,-98 -155,-212 -202,-342 -47,-131 -70,-272 -70,-425 0,-207 41,-393 122,-554 81,-163 204,-293 371,-391 167,-96 365,-145 594,-145 175,0 332,28 469,83 138,55 250,133 336,232 87,99 152,214 198,346 45,131 67,276 67,433 0,151 -23,290 -69,420 -47,130 -114,244 -201,342 -87,99 -199,178 -338,235 -138,56 -293,84 -464,84z"/>
   <path class="fil0" d="M10736 3461l0 -2076 450 0 0 292c149,-230 326,-345 530,-345 67,0 137,10 210,31l0 398c-78,-27 -159,-41 -243,-41 -147,0 -265,50 -356,149 -90,99 -135,240 -135,424l0 1168 -456 0z"/>
   <polygon class="fil0" points="12130,3461 12130,488 12583,488 12583,2244 13391,1385 14014,1385 13000,2380 14083,3461 13480,3461 12583,2530 12583,3461 "/>
   <path class="fil1" d="M15037 3507c-260,0 -459,-75 -596,-224 -136,-149 -205,-347 -205,-596l0 -1302 449 0 0 1298c0,153 38,268 115,342 76,76 184,115 324,115 162,0 285,-44 369,-130 83,-87 125,-215 125,-385l0 -1240 454 0 0 1534c0,172 6,353 20,542l-466 0 -8 -316c-16,38 -38,76 -66,113 -29,38 -66,78 -112,116 -46,40 -104,72 -174,97 -70,25 -146,36 -229,36z"/>
   <path class="fil1" d="M17435 3140c184,0 322,-68 415,-202 93,-135 140,-309 140,-521 0,-214 -48,-386 -142,-519 -94,-134 -231,-200 -411,-200 -182,0 -322,68 -419,203 -97,135 -145,310 -145,525 0,210 47,381 142,514 95,132 235,200 420,200zm-991 1141l0 -2896 449 0 0 321c25,-92 100,-176 223,-256 124,-79 267,-118 430,-118 185,0 348,49 488,144 140,96 247,226 320,386 73,160 109,340 109,537 0,199 -36,382 -109,549 -73,167 -181,301 -325,404 -144,104 -310,155 -499,155 -160,0 -301,-38 -422,-113 -120,-78 -192,-155 -215,-235l0 1122 -449 0z"/>
   <polygon class="fil1" points="18710,3461 19161,3461 19161,488 18710,488 "/>
   <path class="fil1" d="M20514 3140c200,0 350,-68 451,-202 100,-132 150,-306 150,-517 0,-215 -51,-389 -153,-523 -103,-132 -253,-200 -450,-200 -197,0 -347,68 -451,200 -104,134 -156,308 -156,523 0,211 52,385 154,517 103,134 254,202 455,202zm2 367c-174,0 -330,-28 -470,-84 -140,-57 -254,-134 -342,-234 -88,-98 -156,-212 -202,-342 -47,-131 -70,-272 -70,-425 0,-207 40,-393 121,-554 81,-163 205,-293 371,-391 167,-96 365,-145 594,-145 176,0 332,28 470,83 138,55 250,133 336,232 86,99 152,214 197,346 45,131 68,276 68,433 0,151 -23,290 -70,420 -46,130 -113,244 -200,342 -87,99 -200,178 -338,235 -138,56 -293,84 -465,84z"/>
   <path class="fil1" d="M22797 3140c198,0 346,-66 443,-199 97,-131 146,-306 146,-527 0,-215 -51,-389 -151,-520 -101,-130 -249,-196 -444,-196 -201,0 -353,66 -456,197 -102,131 -153,307 -153,523 0,214 51,388 154,520 104,134 257,202 461,202zm-63 367c-162,0 -308,-29 -439,-90 -131,-59 -237,-141 -318,-241 -81,-101 -142,-216 -185,-341 -43,-127 -64,-260 -64,-397 0,-147 23,-286 68,-419 45,-131 110,-249 193,-351 84,-102 191,-184 321,-245 130,-60 274,-91 432,-91 138,0 261,29 368,87 108,60 195,138 259,236l0 -270 444 0 0 2076 -452 0 0 -312c-62,108 -147,195 -256,260 -108,66 -232,98 -371,98z"/>
   <path class="fil1" d="M25035 3140c186,0 326,-68 421,-202 94,-135 141,-310 141,-525 0,-210 -48,-381 -144,-515 -95,-132 -234,-200 -414,-200 -182,0 -322,68 -419,200 -98,134 -146,308 -146,523 0,211 47,385 142,517 94,134 234,202 419,202zm-83 367c-274,0 -501,-98 -681,-294 -180,-196 -271,-457 -271,-780 0,-154 22,-298 65,-429 43,-132 105,-249 185,-349 81,-100 184,-179 309,-237 125,-58 266,-86 423,-86 148,0 276,32 383,96 108,63 181,132 220,208l0 -1148 453 0 0 2973 -447 0 -4 -298c-36,87 -109,166 -218,237 -108,72 -247,107 -417,107z"/>
   <path class="fil0" d="M1263 4874l-94 -1169 -1169 -93 618 -1192 580 -185c429,-743 1166,-1681 2283,-2067 700,-243 1217,-152 1239,-149l138 26 11 140c58,765 -146,1461 -607,2069 -421,555 -974,923 -1364,1133 -324,175 -714,120 -970,-137 -286,-285 -286,-750 0,-1036l968 -969c209,-209 549,-209 758,0 209,210 209,550 0,759l-606 606c-71,72 -186,72 -258,0 -71,-70 -71,-186 0,-258l607 -606c67,-67 67,-176 0,-243 -67,-67 -176,-67 -243,0l-969 969c-143,143 -143,377 0,520 142,142 359,173 540,75 693,-374 1824,-1216 1789,-2700 -182,-7 -523,7 -934,153 -816,288 -1542,966 -2100,1956l-35 64 -573 182 -296 571 931 74 75 932 571 -297 59 -185c30,-96 133,-149 229,-119 96,31 149,133 118,230l-104 328 -1192 618z"/>
   <path class="fil1" d="M26997 494c93,0 183,24 272,71 88,48 157,116 206,204 49,89 74,181 74,277 0,95 -25,187 -73,275 -49,87 -117,156 -204,204 -88,49 -179,73 -275,73 -95,0 -187,-24 -275,-73 -87,-48 -155,-117 -204,-204 -49,-88 -73,-180 -73,-275 0,-96 25,-188 74,-277 50,-88 119,-156 207,-204 88,-47 178,-71 271,-71zm0 91c-77,0 -153,20 -226,60 -74,40 -131,97 -173,171 -41,73 -62,150 -62,230 0,80 21,156 61,229 41,73 98,130 171,170 73,41 150,61 229,61 80,0 156,-20 229,-61 73,-40 130,-97 171,-170 40,-73 60,-149 60,-229 0,-80 -20,-157 -62,-230 -41,-74 -98,-131 -172,-171 -74,-40 -149,-60 -226,-60zm-242 766l0 -593 204 0c70,0 120,5 152,16 31,11 56,30 74,58 19,27 28,56 28,86 0,44 -15,82 -47,113 -30,33 -72,51 -123,55 21,8 38,19 50,31 24,23 54,62 88,118l73 116 -117 0 -53 -94c-41,-73 -75,-119 -100,-138 -18,-13 -43,-20 -77,-20l-56 0 0 252 -96 0zm96 -334l116 0c56,0 94,-8 114,-25 20,-16 30,-38 30,-65 0,-18 -5,-34 -14,-47 -10,-14 -24,-24 -41,-31 -17,-7 -49,-10 -96,-10l-109 0 0 178z"/>
  </g>
 </g>
</svg>
