<?xml version="1.0" encoding="UTF-8"?>
<!DOCTYPE svg PUBLIC "-//W3C//DTD SVG 1.1//EN" "http://www.w3.org/Graphics/SVG/1.1/DTD/svg11.dtd">
<svg xmlns="http://www.w3.org/2000/svg" xml:space="preserve" width="42.8107mm" height="42.9006mm" version="1.1" style="shape-rendering:geometricPrecision; text-rendering:geometricPrecision; image-rendering:optimizeQuality; fill-rule:evenodd; clip-rule:evenodd"
viewBox="0 0 2379 2384"
 xmlns:xlink="http://www.w3.org/1999/xlink">
 <defs>
  <style type="text/css">
   <![CDATA[
    .fil0 {fill:#0087F7;fill-rule:nonzero}
   ]]>
  </style>
 </defs>
 <g id="Ebene_x0020_1">
  <metadata id="CorelCorpID_0Corel-Layer"/>
  <g id="_403614920">
   <path class="fil0" d="M616 2377l-46 -570 -570 -46 300 -579 284 -90c209,-363 569,-821 1115,-1010 342,-118 594,-74 605,-72l66 12 5 67c28,373 -72,713 -297,1009 -205,271 -475,451 -666,554 -157,85 -347,58 -472,-67 -67,-67 -104,-157 -104,-252 0,-95 37,-184 104,-252l474 -473c101,-101 266,-101 368,0 101,102 101,267 0,368l-297 296c-34,34 -89,34 -123,0 -34,-34 -34,-89 0,-123l296 -296c34,-34 34,-88 0,-122 -33,-33 -88,-33 -121,0l-473 474c-35,34 -54,80 -54,128 0,49 19,94 54,129 70,70 176,85 266,36 339,-183 893,-595 875,-1323 -89,-4 -256,3 -459,75 -399,141 -755,473 -1028,958l-16 29 -280 89 -147 283 456 37 37 456 283 -147 29 -91c14,-46 63,-71 109,-56 46,14 71,63 57,109l-51 160 -579 300z"/>
   <path class="fil0" d="M1877 1850c45,0 89,11 132,34 42,23 76,56 100,99 23,43 35,88 35,134 0,46 -11,91 -35,133 -23,43 -56,76 -99,99 -42,24 -86,35 -133,35 -46,0 -90,-11 -133,-35 -42,-23 -75,-56 -99,-99 -23,-42 -35,-87 -35,-133 0,-46 12,-91 36,-134 24,-43 57,-76 100,-99 43,-23 86,-34 131,-34zm0 44c-37,0 -74,10 -109,29 -36,19 -64,47 -84,82 -20,36 -30,74 -30,112 0,39 10,76 30,111 19,35 47,63 82,83 36,19 73,29 111,29 39,0 76,-10 111,-29 36,-20 63,-48 83,-83 19,-35 29,-72 29,-111 0,-38 -10,-76 -30,-112 -20,-35 -48,-63 -83,-82 -36,-19 -72,-29 -110,-29zm-117 371l0 -288 99 0c34,0 58,3 73,8 15,6 27,15 37,28 8,13 13,27 13,42 0,21 -8,40 -23,55 -15,16 -35,24 -60,26 11,5 19,10 25,16 12,11 26,30 42,56l36 57 -57 0 -25 -46c-21,-35 -37,-58 -49,-66 -9,-7 -21,-10 -37,-10l-28 0 0 122 -46 0zm46 -162l57 0c27,0 45,-4 55,-12 10,-8 15,-19 15,-32 0,-8 -3,-16 -8,-22 -4,-7 -11,-12 -19,-15 -9,-4 -24,-5 -47,-5l-53 0 0 86z"/>
  </g>
 </g>
</svg>
