<?xml version="1.0" encoding="UTF-8"?>
<!DOCTYPE svg PUBLIC "-//W3C//DTD SVG 1.1//EN" "http://www.w3.org/Graphics/SVG/1.1/DTD/svg11.dtd">
<!-- Creator: CorelDRAW X7 -->
<svg xmlns="http://www.w3.org/2000/svg" xml:space="preserve" width="3263px" height="3796px" version="1.1" style="shape-rendering:geometricPrecision; text-rendering:geometricPrecision; image-rendering:optimizeQuality; fill-rule:evenodd; clip-rule:evenodd"
viewBox="0 0 2293 2669"
 xmlns:xlink="http://www.w3.org/1999/xlink">
 <defs>
  <style type="text/css">
   <![CDATA[
    .str0 {stroke:#0087F7;stroke-width:41.5107}
    .fil0 {fill:none}
   ]]>
  </style>
 </defs>
 <g id="Ebene_x0020_1">
  <metadata id="CorelCorpID_0Corel-Layer"/>
  <path class="fil0 str0" d="M142 25c-111,25 -120,91 -120,185 0,761 -3,1524 0,2283 0,96 56,152 152,153l1829 0c101,0 188,19 244,-60 27,-38 25,-74 25,-128l0 -1522c0,-110 7,-174 -38,-266 -39,-78 -81,-109 -138,-166 -103,-103 -203,-203 -305,-305 -59,-59 -87,-98 -167,-138 -90,-45 -157,-39 -266,-39 -356,0 -711,0 -1067,0 -37,0 -118,-4 -149,3zm1380 747l550 0c-13,-44 -30,-58 -54,-82l-413 -413c-23,-24 -39,-42 -82,-55l-1 550zm-562 -374l0 -188 -751 0 0 2248 1876 0 0 -1498 -563 0c-54,0 -103,4 -147,-41 -37,-38 -40,-78 -40,-147l0 -562 -188 0 0 188 -187 0z"/>
  <path class="fil0 str0" d="M960 1147l-188 0c0,232 11,150 -54,368 -32,107 -65,216 -98,323 -26,84 -58,163 -12,257 107,214 499,230 659,62 30,-31 61,-81 66,-144 6,-66 -16,-119 -34,-175 -32,-108 -67,-216 -99,-323 -57,-192 -43,-181 -240,-181l0 -187zm-38 751c-40,5 -79,16 -109,34 -25,16 -59,48 -31,89 15,21 54,42 89,52 40,10 85,13 128,9 40,-5 77,-16 107,-34 116,-69 -27,-170 -184,-150z"/>
  <polygon class="fil0 str0" points="960,585 960,398 772,398 772,585 "/>
  <polygon class="fil0 str0" points="960,772 1147,772 1147,585 960,585 "/>
  <polygon class="fil0 str0" points="960,960 960,772 772,772 772,960 "/>
  <polygon class="fil0 str0" points="960,1147 1147,1147 1147,960 960,960 "/>
 </g>
</svg>
