<?xml version="1.0" encoding="UTF-8"?>
<!DOCTYPE svg PUBLIC "-//W3C//DTD SVG 1.1//EN" "http://www.w3.org/Graphics/SVG/1.1/DTD/svg11.dtd">
<!-- Creator: CorelDRAW X7 -->
<svg xmlns="http://www.w3.org/2000/svg" xml:space="preserve" width="3791px" height="3790px" version="1.1" style="shape-rendering:geometricPrecision; text-rendering:geometricPrecision; image-rendering:optimizeQuality; fill-rule:evenodd; clip-rule:evenodd"
viewBox="0 0 4195 4194"
 xmlns:xlink="http://www.w3.org/1999/xlink">
 <defs>
  <style type="text/css">
   <![CDATA[
    .str0 {stroke:#0087F7;stroke-width:65.3444}
    .fil0 {fill:none}
   ]]>
  </style>
 </defs>
 <g id="Ebene_x0020_1">
  <metadata id="CorelCorpID_0Corel-Layer"/>
  <path class="fil0 str0" d="M3512 576c0,4 -503,506 -551,555 -64,-43 -154,-192 -250,-199 -82,-5 -114,41 -149,77 -32,31 -87,80 -112,113l-179 -83c-604,-251 -1287,-102 -1748,336 -41,38 -84,88 -124,135 -153,177 -284,463 -333,700 -8,41 -26,214 -33,231l0 190c5,13 21,170 27,205 53,290 207,599 400,807 49,52 157,150 217,193 384,278 880,420 1451,255 109,-31 233,-87 323,-138 78,-45 208,-126 272,-189 10,-10 19,-15 29,-26 127,-125 85,-81 193,-213 65,-79 124,-186 175,-290 108,-217 164,-486 155,-764 -13,-420 -191,-676 -202,-726 32,-25 80,-78 111,-110 34,-33 83,-67 79,-145 -5,-106 -145,-175 -197,-254 71,-72 554,-513 557,-562 -12,-20 -90,-99 -111,-98zm-2331 727c-99,26 -239,114 -307,165 -188,141 -322,303 -426,520 -27,57 -53,121 -15,184 26,42 87,86 163,69 103,-23 106,-130 199,-271 207,-315 469,-366 524,-421 96,-96 10,-284 -138,-246z"/>
  <path class="fil0 str0" d="M3997 110c-48,14 -148,130 -186,170 -18,18 -74,66 -78,98 -6,52 42,99 96,82 25,-8 159,-146 184,-171 22,-22 71,-59 75,-100 5,-53 -39,-95 -91,-79z"/>
  <path class="fil0 str0" d="M3781 640c-59,25 -60,83 -32,115l175 179c22,22 61,74 118,52 42,-16 63,-65 32,-114 -12,-20 -149,-149 -177,-177 -23,-22 -61,-78 -116,-55z"/>
  <path class="fil0 str0" d="M3259 110c-59,18 -65,71 -44,110 13,24 146,149 176,178 22,21 62,78 115,62 38,-11 77,-65 41,-112 -21,-28 -61,-65 -88,-91 -30,-31 -56,-58 -86,-89 -21,-21 -61,-74 -114,-58z"/>
  <path class="fil0 str0" d="M3667 33l-41 0c-5,3 2,-1 -10,6 -4,2 -6,2 -10,5 -49,27 -33,108 -33,182 0,79 -17,175 73,175 90,0 74,-92 74,-170 0,-102 17,-160 -40,-191 -1,0 -6,-3 -7,-3l-6 -4z"/>
  <path class="fil0 str0" d="M3847 479c-83,27 -65,135 12,143 29,3 233,3 254,-3 66,-18 71,-132 -15,-143 -33,-4 -228,-4 -251,3z"/>
 </g>
</svg>
