<?xml version="1.0" encoding="UTF-8"?>
<!DOCTYPE svg PUBLIC "-//W3C//DTD SVG 1.1//EN" "http://www.w3.org/Graphics/SVG/1.1/DTD/svg11.dtd">
<!-- Creator: CorelDRAW X7 -->
<svg xmlns="http://www.w3.org/2000/svg" xml:space="preserve" width="3259px" height="3257px" version="1.1" style="shape-rendering:geometricPrecision; text-rendering:geometricPrecision; image-rendering:optimizeQuality; fill-rule:evenodd; clip-rule:evenodd"
viewBox="0 0 3007 3005"
 xmlns:xlink="http://www.w3.org/1999/xlink">
 <defs>
  <style type="text/css">
   <![CDATA[
    .str0 {stroke:#0087F7;stroke-width:54.4846}
    .fil0 {fill:none}
   ]]>
  </style>
 </defs>
 <g id="Ebene_x0020_1">
  <metadata id="CorelCorpID_0Corel-Layer"/>
  <g id="_1781598679168">
   <path class="fil0 str0" d="M489 434c-51,-30 -244,-261 -300,-280 -35,-11 -67,-3 -96,11 -66,34 -65,81 -65,169l0 700c0,80 -9,152 42,192 55,43 114,31 200,31l703 0c84,0 127,-13 152,-79 34,-86 -19,-121 -56,-159 -54,-54 -188,-195 -233,-235 14,-20 44,-41 64,-58 170,-141 424,-217 654,-206 205,10 386,85 540,196 25,18 45,37 68,56 97,79 202,234 254,364 105,263 95,560 -35,809 -116,222 -285,381 -516,472 -127,51 -269,78 -421,68 -206,-14 -386,-83 -537,-201 -75,-58 -72,-64 -129,-120 -23,-23 -37,-48 -57,-67 -27,-25 -68,-16 -91,5 -51,46 -184,187 -244,247 -42,43 -42,73 1,120 188,206 350,324 627,427 256,95 581,107 855,37 122,-32 251,-85 350,-142 123,-70 187,-116 289,-207 65,-59 72,-75 120,-126l80 -105c78,-116 137,-220 189,-367 94,-261 111,-579 34,-857 -18,-66 -38,-124 -62,-184 -25,-61 -52,-109 -81,-165 -23,-46 -113,-182 -149,-220 -13,-14 -18,-20 -28,-34 -10,-12 -21,-22 -32,-33 -154,-171 -386,-313 -601,-386 -273,-94 -571,-107 -857,-29 -173,48 -399,155 -532,268 -13,11 -21,19 -33,28 -22,16 -50,41 -67,60z"/>
   <path class="fil0 str0" d="M1504 1626c-102,0 -348,-5 -431,0 -79,5 -61,81 -61,154 0,100 30,92 123,92l538 0c39,0 60,-7 72,-36 11,-29 4,-743 5,-856 0,-100 -31,-92 -123,-92 -93,0 -124,-8 -123,92l0 646z"/>
  </g>
 </g>
</svg>
