<?xml version="1.0" encoding="UTF-8"?>
<!DOCTYPE svg PUBLIC "-//W3C//DTD SVG 1.1//EN" "http://www.w3.org/Graphics/SVG/1.1/DTD/svg11.dtd">
<!-- Creator: CorelDRAW X7 -->
<svg xmlns="http://www.w3.org/2000/svg" xml:space="preserve" width="2463px" height="2991px" version="1.1" style="shape-rendering:geometricPrecision; text-rendering:geometricPrecision; image-rendering:optimizeQuality; fill-rule:evenodd; clip-rule:evenodd"
viewBox="0 0 2393 2906"
 xmlns:xlink="http://www.w3.org/1999/xlink">
 <defs>
  <style type="text/css">
   <![CDATA[
    .str0 {stroke:#0087F7;stroke-width:57.3826}
    .fil0 {fill:none}
   ]]>
  </style>
 </defs>
 <g id="Ebene_x0020_1">
  <metadata id="CorelCorpID_0Corel-Layer"/>
  <path class="fil0 str0" d="M290 1324c-103,0 -200,3 -247,125 -22,55 -12,284 -12,360 0,248 0,496 0,745 0,148 -12,219 83,289 48,34 84,34 152,34l1862 0c67,0 103,0 151,-34 95,-70 84,-141 84,-289 0,-249 0,-497 0,-745 0,-78 9,-303 -12,-360 -45,-122 -150,-125 -248,-125 0,-131 7,-426 -11,-539 -25,-157 -95,-307 -180,-403 -48,-55 -43,-62 -118,-125l-75 -62c-26,-20 -54,-36 -84,-54 -119,-70 -275,-112 -438,-112 -359,0 -591,189 -730,371 -211,274 -177,528 -177,924zm388 0l1037 0c0,-119 0,-238 0,-357 0,-119 -17,-200 -67,-289 -141,-244 -458,-345 -728,-182 -77,46 -129,109 -174,183 -49,79 -68,178 -68,288 1,119 0,238 0,357z"/>
 </g>
</svg>
