<?xml version="1.0" encoding="UTF-8"?>
<!DOCTYPE svg PUBLIC "-//W3C//DTD SVG 1.1//EN" "http://www.w3.org/Graphics/SVG/1.1/DTD/svg11.dtd">
<!-- Creator: CorelDRAW X7 -->
<svg xmlns="http://www.w3.org/2000/svg" xml:space="preserve" width="3459px" height="3461px" version="1.1" style="shape-rendering:geometricPrecision; text-rendering:geometricPrecision; image-rendering:optimizeQuality; fill-rule:evenodd; clip-rule:evenodd"
viewBox="0 0 2294 2295"
 xmlns:xlink="http://www.w3.org/1999/xlink">
 <defs>
  <style type="text/css">
   <![CDATA[
    .str0 {stroke:#0087F7;stroke-width:39.1661}
    .fil0 {fill:none}
   ]]>
  </style>
 </defs>
 <g id="Ebene_x0020_1">
  <metadata id="CorelCorpID_0Corel-Layer"/>
  <path class="fil0 str0" d="M548 1361l368 369c26,26 21,10 -8,104 -23,77 -47,153 -70,229 -35,112 -35,87 64,187 38,38 54,30 100,2 151,-92 314,-182 469,-274 47,-29 50,-25 54,-92l22 -423c1,-19 -2,-53 7,-66 5,-6 14,-12 20,-16 8,-7 14,-12 20,-18 13,-12 28,-23 41,-34l79 -71c33,-34 88,-80 114,-109 86,-94 105,-111 187,-220 6,-8 11,-13 16,-22 112,-166 178,-306 218,-526 15,-86 23,-181 24,-270 1,-33 14,-92 -54,-91 -49,0 -96,2 -144,5 -296,16 -537,105 -754,284l-119 103c-13,14 -24,24 -38,36l-128 133c-7,7 -11,13 -17,21 -12,14 -24,24 -36,38 -12,14 -21,26 -35,40 -47,51 -34,63 -82,65 -47,3 -94,5 -141,8 -93,5 -186,10 -279,15 -23,1 -47,1 -70,3 -24,2 -35,12 -45,30l-165 283c-37,63 -73,124 -109,186 -22,39 -53,75 -28,104l75 74c10,11 21,28 41,31 23,3 147,-40 174,-49 39,-11 206,-65 229,-69zm1265 -1030c-175,27 -136,285 39,262 67,-9 123,-73 111,-152 -10,-65 -71,-122 -150,-110z"/>
 </g>
</svg>
